<?xml version="1.0" encoding="iso-8859-1"?>
<!-- Generator: Adobe Illustrator 19.0.0, SVG Export Plug-In . SVG Version: 6.00 Build 0)  -->
<svg width="48px" height="48px" version="1.1" id="Capa_1" xmlns="http://www.w3.org/2000/svg" xmlns:xlink="http://www.w3.org/1999/xlink" x="0px" y="0px"
	 viewBox="0 0 487.457 487.457" style="fill:#7DCE13" xml:space="preserve">
<g>
	<g>
		<path style="fill:#010002;" d="M158.977,414.353h169.482v43.185H158.977V414.353z M487.457,29.919v367.825H0V29.919H487.457z
			 M437.283,361.181c0-8.715-7.054-15.79-15.768-15.79s-15.79,7.075-15.79,15.79s7.075,15.79,15.79,15.79
			C430.251,376.971,437.283,369.896,437.283,361.181z M447.766,60.937H39.712v260.985h408.054V60.937z M132.703,261.546
			c-35.98-36.002-35.98-94.307,0-130.331c35.958-36.002,94.351-36.002,130.331,0l-65.165,65.165l65.187,65.165
			C227.076,297.569,168.705,297.569,132.703,261.546z M174.723,143.424c0,7.118,5.781,12.899,12.921,12.899
			c7.118,0,12.899-5.781,12.899-12.899c0-7.118-5.781-12.899-12.899-12.899C180.504,130.525,174.745,136.306,174.723,143.424z
			 M280.183,213.637c9.707,0,17.559-7.852,17.559-17.559s-7.852-17.559-17.559-17.559s-17.559,7.852-17.559,17.559
			S270.476,213.637,280.183,213.637z M358.657,213.659c9.707,0,17.58-7.873,17.58-17.58s-7.873-17.58-17.58-17.58
			s-17.58,7.873-17.58,17.58S348.951,213.659,358.657,213.659z"/>
	</g>
	
</g>
</svg>
